<mxfile host="app.diagrams.net" modified="2024-05-30T03:03:46.013Z" agent="Mozilla/5.0 (Windows NT 10.0; Win64; x64; rv:125.0) Gecko/20100101 Firefox/125.0" version="24.2.0" etag="X9Z1rMlNG02g_EoafVA1" type="github">
  <diagram name="第 1 页" id="prAAgTrfn_zCt_iRyVwn">
    <mxGraphModel>
      <root>
        <mxCell id="0" />
        <mxCell id="1" parent="0" />
      </root>
    </mxGraphModel>
  </diagram>
</mxfile>
